<?xml version="1.0" encoding="iso-8859-1"?>
<!-- Generator: Adobe Illustrator 23.1.1, SVG Export Plug-In . SVG Version: 6.00 Build 0)  -->
<svg version="1.1" id="_x31_-outline-expand" xmlns="http://www.w3.org/2000/svg"
	 x="0px" y="0px" viewBox="0 0 64 64" style="enable-background:new 0 0 64 64;" xml:space="preserve">
<path style="fill:#E0C494;" d="M29,16c0,7.732-6.268,14-14,14C7.268,30,1,23.732,1,16C1,8.268,7.268,2,15,2C22.733,2,29,8.268,29,16
	L29,16z"/>
<path style="fill:#F2DAAE;" d="M27.5,16c0,6.904-5.596,12.5-12.5,12.5C8.097,28.5,2.5,22.904,2.5,16C2.5,9.096,8.097,3.5,15,3.5
	C21.904,3.5,27.5,9.096,27.5,16L27.5,16z"/>
<rect x="14" y="7" style="fill:#EFBC2E;" width="2" height="4"/>
<rect x="13" y="6" style="fill:#EFBC2E;" width="4" height="2"/>
<rect x="7.938" y="10.5" transform="matrix(0.5 -0.866 0.866 0.5 -6.3564 13.9901)" style="fill:#EFBC2E;" width="2" height="4"/>
<rect x="5.206" y="10.5" transform="matrix(0.4999 -0.8661 0.8661 0.4999 -6.3562 11.9919)" style="fill:#EFBC2E;" width="4.001" height="2"/>
<rect x="6.938" y="18.5" transform="matrix(0.8661 -0.4999 0.4999 0.8661 -8.5514 7.0799)" style="fill:#EFBC2E;" width="4" height="2"/>
<rect x="6.206" y="18.5" transform="matrix(0.8661 -0.4999 0.4999 0.8661 -9.2833 6.348)" style="fill:#EFBC2E;" width="2" height="4.001"/>
<rect x="14" y="21" style="fill:#EFBC2E;" width="2" height="4"/>
<rect x="13" y="24" style="fill:#EFBC2E;" width="4" height="2"/>
<rect x="20.063" y="17.5" transform="matrix(0.5 -0.866 0.866 0.5 -6.3563 27.9903)" style="fill:#EFBC2E;" width="2" height="4"/>
<rect x="20.795" y="19.5" transform="matrix(0.4999 -0.8661 0.8661 0.4999 -6.3552 29.9937)" style="fill:#EFBC2E;" width="4.001" height="2"/>
<rect x="19.063" y="11.5" transform="matrix(0.8661 -0.4999 0.4999 0.8661 -3.4281 12.2039)" style="fill:#EFBC2E;" width="4" height="2"/>
<rect x="21.795" y="9.5" transform="matrix(0.8661 -0.4999 0.4999 0.8661 -2.6962 12.9358)" style="fill:#EFBC2E;" width="2" height="4.001"/>
<path style="fill:#AA494A;" d="M21,16c0,3.313-2.687,6-6,6c-3.313,0-6-2.687-6-6c0-3.313,2.687-6,6-6C18.313,10,21,12.687,21,16
	L21,16z"/>
<path style="fill:#D36767;" d="M19,16c0,2.208-1.791,4-4,4c-2.208,0-4-1.791-4-4c0-2.208,1.791-4,4-4C17.209,12,19,13.792,19,16
	L19,16z"/>
<rect x="51.172" y="5.172" transform="matrix(0.7071 -0.7071 0.7071 0.7071 10.1595 40.5272)" style="fill:#3A4249;" width="5.657" height="5.657"/>
<rect x="55.001" y="0.343" transform="matrix(0.7071 -0.7071 0.7071 0.7071 12.1595 41.3557)" style="fill:#3A4249;" width="2" height="11.314"/>
<path style="fill:#42A5B2;" d="M49,17l11,11v30c0,2.209-1.791,4-4,4H26v-4c0-1.104,0.896-2,2-2h27V29l-9-9L49,17z"/>
<rect x="34" y="29" style="fill:#42A5B2;" width="16" height="10"/>
<polygon style="fill:#62C4C3;" points="36,29 36,20 49,7 55,13 48,20 48,29 "/>
<rect x="40" y="39" style="fill:#EFBC2E;" width="4" height="4"/>
<rect x="32" y="46" style="fill:#3A4249;" width="23" height="2"/>
<rect x="36" y="52" style="fill:#EFBC2E;" width="12" height="4"/>
<path style="fill:#EFBC2E;" d="M62,37c0,2.209-1.791,4-4,4c-2.209,0-4-1.791-4-4c0-2.209,1.791-4,4-4C60.209,33,62,34.791,62,37
	L62,37z"/>
<path style="fill:#EF941D;" d="M60,37c0,1.104-0.895,2-2,2c-1.104,0-2-0.895-2-2c0-1.104,0.895-2,2-2C59.105,35,60,35.896,60,37
	L60,37z"/>
<rect x="13" y="32" style="fill:#3A4249;" width="2" height="2"/>
<rect x="13" y="36" style="fill:#3A4249;" width="2" height="2"/>
<rect x="13" y="40" style="fill:#3A4249;" width="2" height="2"/>
<rect x="13" y="44" style="fill:#3A4249;" width="2" height="2"/>
<rect x="13" y="48" style="fill:#3A4249;" width="2" height="2"/>
<rect x="13" y="52" style="fill:#3A4249;" width="2" height="2"/>
<rect x="13" y="56" style="fill:#3A4249;" width="2" height="2"/>
<rect x="17" y="56" style="fill:#3A4249;" width="2" height="2"/>
<rect x="21" y="56" style="fill:#3A4249;" width="2" height="2"/>
<rect x="30" y="10" style="fill:#3A4249;" width="2" height="2"/>
<rect x="34" y="10" style="fill:#3A4249;" width="2" height="2"/>
<rect x="38" y="10" style="fill:#3A4249;" width="2" height="2"/>
</svg>
